<svg xmlns="http://www.w3.org/2000/svg" viewBox="0 0 56 45" fill="none">
  <path d="M11.783 0.465134C6.04622 2.04593 1.64903 6.81758 0.396845 12.7602C-0.127324 15.307 -0.127324 16.9171 0.367724 19.3468C1.70727 25.6993 7.88082 33.5154 18.5972 42.444L21.0724 44.5225L21.3927 43.1173C22.1499 39.8972 23.402 37.9944 25.6152 36.7941C27.2751 35.8574 28.3525 35.9159 30.158 36.9698C31.5849 37.8187 33.2739 40.5412 33.7398 42.7367C33.9437 43.7321 34.1766 44.5225 34.264 44.5225C34.5261 44.5225 40.8161 39.0775 43.5243 36.5307C51.7363 28.7438 56.0461 20.9862 55.4637 15.0436C55.0269 10.711 53.2797 7.05178 50.2511 4.24147C44.2814 -1.37913 35.4579 -1.4084 29.5756 4.12438L27.7701 5.82227L25.9646 4.15365C22.9361 1.34335 19.4708 -0.00325012 15.3939 0.0552979C14.2 0.0552979 12.5692 0.260216 11.783 0.465134Z" fill="#0086DA"/>
  <path d="M24.0136 9.97903C21.0142 11.15 18.9757 13.2577 17.7235 16.4193C16.7917 18.7612 16.9664 22.3619 18.1021 24.616C19.2378 26.8116 21.2471 28.8022 23.3729 29.7975C24.9163 30.5001 25.4987 30.6172 27.7701 30.6172C29.9833 30.6172 30.653 30.5001 32.0217 29.8561C39.1271 26.4896 40.5831 17.5024 34.8755 12.2039C32.6624 10.1547 30.7113 9.39355 27.6828 9.39355C26.1976 9.42283 24.9745 9.59847 24.0136 9.97903ZM31.0316 13.4334C30.9151 14.0188 30.9151 15.0142 31.0025 15.5996L31.1772 16.6828L33.2739 16.7706L35.3414 16.8584V20.0493V23.2694L33.3613 23.2987C32.2838 23.328 31.3228 23.4451 31.2063 23.5329C31.119 23.65 31.0025 24.616 31.0025 25.6992L30.9734 27.6898L27.6828 27.7776L24.4213 27.8654V25.6699V23.5036L23.0526 23.328C22.2663 23.2401 21.3345 23.2109 20.9268 23.2401L20.1988 23.2987L20.1114 19.9907L20.0241 16.712H22.2372H24.4213V14.5165V12.321H27.7992H31.2063L31.0316 13.4334Z" fill="white"/>
</svg>
